<?xml version="1.0" encoding="UTF-8"?>
<svg version="1.1" xmlns="http://www.w3.org/2000/svg" width="500" height="500">
<path d="M0 0 C0.97970512 0.00477356 0.97970512 0.00477356 1.97920227 0.00964355 C4.11888257 0.02213315 6.25835348 0.04303868 8.39794922 0.06567383 C9.13655056 0.07263086 9.8751519 0.0795879 10.6361351 0.08675575 C14.54804197 0.1240305 18.45980941 0.16794926 22.37158203 0.21728516 C26.37543168 0.26646927 30.37908265 0.29279121 34.38316536 0.31371593 C37.49439238 0.33426566 40.60524453 0.37220559 43.71624374 0.41457558 C45.190296 0.43171758 46.66443752 0.44256454 48.13858414 0.44652367 C63.15545207 0.49865818 75.63978653 3.27100138 86.85107422 13.74145508 C95.4677697 23.01424412 98.65714057 34.69429917 98.44873047 47.10083008 C97.62017179 59.21370929 91.71581857 69.18586196 82.79638672 77.11254883 C72.91313989 84.7014705 61.15183682 86.51965583 49.07763672 88.08520508 C48.89177002 88.81634521 48.70590332 89.54748535 48.5144043 90.30078125 C47.657434 93.62962889 46.7741128 96.9509316 45.89013672 100.27270508 C45.59816406 101.42319336 45.30619141 102.57368164 45.00537109 103.7590332 C42.07167136 114.64211287 42.07167136 114.64211287 37.07763672 118.08520508 C34.05115337 118.99258649 32.32795602 118.54953641 29.07763672 118.08520508 C25.83481215 116.00647138 25.21107461 114.68182155 24.37182617 110.92944336 C24.04673361 106.68138735 24.69781153 103.19424026 25.80810547 99.13989258 C25.99979813 98.40699005 26.19149078 97.67408752 26.38899231 96.91897583 C26.79536851 95.3793877 27.20837771 93.84153651 27.62768555 92.30541992 C28.26394793 89.9645787 28.87226477 87.61769415 29.47802734 85.26879883 C29.87806708 83.76705545 30.27970635 82.26573705 30.68310547 80.76489258 C30.95213936 79.72097855 30.95213936 79.72097855 31.22660828 78.65597534 C32.42673234 74.34516533 33.79659924 71.17414778 37.07763672 68.08520508 C39.57617188 67.50512695 39.57617188 67.50512695 42.36669922 67.55395508 C43.90390625 67.54428711 43.90390625 67.54428711 45.47216797 67.53442383 C47.60238212 67.56790966 49.73259065 67.60175564 51.86279297 67.63598633 C59.8790465 67.58594729 66.50586574 66.06900914 72.69311523 60.67749023 C77.77404613 55.03826684 79.62188065 48.99691172 79.36279297 41.57348633 C78.58875259 34.81918878 75.89886127 29.90642963 71.07763672 25.08520508 C62.48103915 18.69555798 52.91224715 18.82384946 42.63666916 18.96544075 C40.37441521 18.99588837 38.11242376 19.01249189 35.8500061 19.02549744 C29.42340337 19.06502769 22.99712123 19.1303978 16.57080078 19.20166016 C12.62587577 19.24446077 8.6810559 19.27249879 4.73595047 19.29195976 C3.23925168 19.30249125 1.74258161 19.31884809 0.24601364 19.34126472 C-1.84752404 19.37259554 -3.94044294 19.38525494 -6.03417969 19.39404297 C-7.22250397 19.40673721 -8.41082825 19.41943146 -9.63516235 19.43251038 C-13.35881339 19.03909246 -15.74847952 18.04642968 -18.92236328 16.08520508 C-20.16455078 13.60473633 -20.16455078 13.60473633 -20.79736328 10.89770508 C-21.02166016 9.99665039 -21.24595703 9.0955957 -21.47705078 8.16723633 C-21.62400391 7.48016602 -21.77095703 6.7930957 -21.92236328 6.08520508 C-14.88756611 0.75448921 -8.84273281 -0.0598114 0 0 Z " fill="#5E2FF5" transform="translate(209.92236328125,181.914794921875)"/>
<path d="M0 0 C0.88449326 -0.00945648 1.76898651 -0.01891296 2.68028259 -0.02865601 C3.62827225 -0.02258331 4.5762619 -0.01651062 5.55297852 -0.01025391 C7.02493431 -0.01455917 7.02493431 -0.01455917 8.52662659 -0.01895142 C10.60027646 -0.02099128 12.67394561 -0.01546684 14.74755859 -0.00292969 C17.91686205 0.01310758 21.08488689 -0.00277246 24.25415039 -0.02197266 C26.27042924 -0.01998987 28.2867073 -0.01614548 30.30297852 -0.01025391 C31.24894394 -0.0163266 32.19490936 -0.02239929 33.16954041 -0.02865601 C38.06388088 0.02348558 41.57615653 0.11136495 45.49438477 3.38818359 C47.99470131 7.13865841 48.03042031 8.94674625 47.49438477 13.38818359 C44.97842596 17.00487438 43.35148498 18.18559627 39.05688477 19.20068359 C34.11506893 19.54438131 29.14407223 19.39974846 24.19360352 19.35693359 C18.60207604 19.40416931 13.05947944 19.87050037 7.49438477 20.38818359 C5.45461192 24.93768415 3.83968249 29.32698455 2.56494141 34.16210938 C2.39536423 34.79883575 2.22578705 35.43556213 2.05107117 36.09158325 C1.68713651 37.45993302 1.32548207 38.82889097 0.96592903 40.19839859 C0.39507807 42.36948601 -0.18360239 44.53834816 -0.76454163 46.70675659 C-2.41399564 52.86720843 -4.0530739 59.03035624 -5.67822266 65.19726562 C-6.67614875 68.98183204 -7.68612153 72.76301275 -8.70364571 76.54235458 C-9.08737702 77.97718503 -9.46651441 79.41325259 -9.84086418 80.85055923 C-10.36486476 82.86126479 -10.90409107 84.8673167 -11.44677734 86.87304688 C-11.74861435 88.01331329 -12.05045135 89.15357971 -12.36143494 90.32839966 C-13.82589102 94.24466986 -15.6796116 97.47518178 -19.50561523 99.38818359 C-23.17948055 99.79639085 -25.0584766 99.63659394 -28.31811523 97.82568359 C-31.17749825 94.63951395 -31.20041769 92.62553395 -31.50561523 88.38818359 C-30.97616577 85.03456116 -30.97616577 85.03456116 -30.04614258 81.51342773 C-29.8787558 80.86510986 -29.71136902 80.21679199 -29.53890991 79.54882812 C-28.98582112 77.42010685 -28.41401908 75.2969243 -27.84155273 73.17333984 C-27.4474871 71.6749533 -27.05449058 70.17628523 -26.6625061 68.67735291 C-25.838102 65.5357321 -25.00517566 62.39654825 -24.1652832 59.2590332 C-23.10161322 55.28534935 -22.05235255 51.30806085 -21.00881004 47.32904911 C-19.99977484 43.48414238 -18.98345637 39.64117162 -17.96655273 35.79833984 C-17.77904827 35.08754839 -17.59154381 34.37675694 -17.39835739 33.64442635 C-16.13854108 28.881466 -14.839517 24.13091119 -13.50561523 19.38818359 C-13.30234871 18.65649334 -13.09908218 17.92480309 -12.88965607 17.1709404 C-12.26844121 14.95886135 -11.62591261 12.75408614 -10.97680664 10.55004883 C-10.78910391 9.87530801 -10.60140118 9.20056719 -10.40801048 8.50537968 C-9.54053318 5.63645467 -8.73912064 3.62798613 -6.63276672 1.46482849 C-4.22449031 0.24589391 -2.68985317 0.0082791 0 0 Z " fill="#5D2FF2" transform="translate(226.505615234375,215.61181640625)"/>
<path d="M0 0 C0.66 0.33 1.32 0.66 2 1 C1.67 3.31 1.34 5.62 1 8 C2.32 8 3.64 8 5 8 C5 8.66 5 9.32 5 10 C7.42048814 12.42048814 8.68283121 12.24322621 11.98622131 12.27897644 C12.67719406 12.27642349 13.36816681 12.27387054 14.08007812 12.27124023 C14.80867538 12.27646698 15.53727264 12.28169373 16.28794861 12.28707886 C17.87195171 12.2973306 19.45598862 12.30310131 21.0400238 12.30496025 C23.54446267 12.30861302 26.04850165 12.32530816 28.55285645 12.34571838 C35.6736713 12.40124333 42.79454517 12.4318618 49.91552734 12.45629883 C54.26865254 12.47214018 58.62149364 12.50232156 62.97447205 12.54106331 C64.63627617 12.55274291 66.29813103 12.55864391 67.9599762 12.55874443 C70.28026138 12.55893568 72.59975856 12.57714093 74.91992188 12.59936523 C75.956381 12.59249947 75.956381 12.59249947 77.01377869 12.585495 C78.92565918 12.61473083 78.92565918 12.61473083 82 13 C82.99 14.485 82.99 14.485 84 16 C83.00307129 15.83483887 82.00614258 15.66967773 80.97900391 15.49951172 C74.85920945 14.74012361 68.71311525 14.92264078 62.55903244 14.98596573 C60.29680888 15.00819702 58.03467152 15.0221389 55.77236938 15.03366089 C49.34584899 15.06706742 42.91947279 15.10897195 36.49316406 15.17138672 C32.54821764 15.20911376 28.60341378 15.23207742 24.65831375 15.24569321 C23.16162747 15.25371966 21.66495982 15.26728904 20.16837692 15.28662491 C18.07480094 15.31322214 15.98190807 15.32100683 13.88818359 15.32470703 C12.69985931 15.33438507 11.51153503 15.34406311 10.28720093 15.35403442 C6.56729872 14.95339769 4.17206635 13.95891307 1 12 C-0.2421875 9.51953125 -0.2421875 9.51953125 -0.875 6.8125 C-1.09929687 5.91144531 -1.32359375 5.01039063 -1.5546875 4.08203125 C-1.70164063 3.39496094 -1.84859375 2.70789063 -2 2 C-1.34 1.34 -0.68 0.68 0 0 Z " fill="#4E2DD3" transform="translate(190,186)"/>
<path d="M0 0 C0.99639748 0.01441132 0.99639748 0.01441132 2.01292419 0.02911377 C4.1826447 0.06178254 6.35214298 0.10223407 8.52172852 0.14282227 C10.03629297 0.16715491 11.55086539 0.19099683 13.06544495 0.21437073 C17.03239068 0.27689912 20.99919375 0.34605249 24.96600342 0.41662598 C29.0216223 0.48759346 33.07734153 0.55223978 37.13305664 0.61743164 C45.07652721 0.74604061 53.01985814 0.8816546 60.96313477 1.02172852 C60.96313477 1.68172852 60.96313477 2.34172852 60.96313477 3.02172852 C35.55313477 3.02172852 10.14313477 3.02172852 -16.03686523 3.02172852 C-12.01398255 -1.00115417 -5.39105744 -0.09035292 0 0 Z " fill="#5E40CE" transform="translate(210.036865234375,181.978271484375)"/>
<path d="M0 0 C0 0.66 0 1.32 0 2 C-3.96899539 4.64243089 -8.21019703 4.40921452 -12.8125 4.5625 C-22.60262151 4.25236973 -22.60262151 4.25236973 -30.875 7.875 C-32.11987426 10.08562447 -32.11987426 10.08562447 -33 13 C-32.34 13 -31.68 13 -31 13 C-31.33 13.99 -31.66 14.98 -32 16 C-32.66 15.67 -33.32 15.34 -34 15 C-34 16.98 -34 18.96 -34 21 C-34.99 20.67 -35.98 20.34 -37 20 C-37.33 22.31 -37.66 24.62 -38 27 C-39.57562714 23.0050228 -38.40127653 19.52626651 -37.3125 15.5625 C-37.15072266 14.90701172 -36.98894531 14.25152344 -36.82226562 13.57617188 C-35.64477743 9.17933395 -34.59335161 5.8595741 -31 3 C-27.02389453 2.29021782 -23.09312223 2.30056802 -19.0625 2.3125 C-16.90747437 2.29585393 -14.7524918 2.27139181 -12.59765625 2.23828125 C-11.64383057 2.23868408 -10.69000488 2.23908691 -9.70727539 2.23950195 C-6.23582009 1.93239602 -3.41105168 0 0 0 Z " fill="#5838D4" transform="translate(278,247)"/>
<path d="M0 0 C2.5245795 -0.07213084 4.77760202 -0.04942177 7.25 0.5 C11.16747523 1.21226822 15.02942844 1.07785434 19 1 C16.15418139 2.89721241 14.99746788 3.34791281 11.76953125 3.8515625 C10.96708984 3.98046875 10.16464844 4.109375 9.33789062 4.2421875 C8.50451172 4.36851562 7.67113281 4.49484375 6.8125 4.625 C5.96751953 4.7590625 5.12253906 4.893125 4.25195312 5.03125 C2.16900055 5.36075662 0.08462573 5.68124989 -2 6 C-3.65 11.61 -5.3 17.22 -7 23 C-7.33 23 -7.66 23 -8 23 C-8.31818647 17.06051915 -7.89763706 12.28592386 -5 7 C-2.3125 4.125 -2.3125 4.125 0 2 C0 1.34 0 0.68 0 0 Z " fill="#5235D7" transform="translate(261,264)"/>
<path d="M0 0 C0.33 0 0.66 0 1 0 C1.28046886 6.87148701 0.31748947 12.29456088 -2 18.8125 C-2.868536 21.5809585 -3.46144643 24.21826395 -4 27.0625 C-4.67489363 30.56351072 -5.350745 33.80456844 -7 37 C-7.99 37.495 -7.99 37.495 -9 38 C-8.34485797 29.93031407 -6.06612985 22.27666743 -3.9375 14.5 C-3.55614707 13.09127935 -3.17528343 11.68242615 -2.79492188 10.2734375 C-1.86892205 6.84741051 -0.93629766 3.42322897 0 0 Z " fill="#5337D3" transform="translate(216,224)"/>
<path d="M0 0 C0.33 0 0.66 0 1 0 C1.09765625 6.15234375 1.09765625 6.15234375 1 8 C0.67 8.33 0.34 8.66 0 9 C-0.36760731 11.32817964 -0.70241581 13.6618385 -1 16 C-1.66 16 -2.32 16 -3 16 C-3 18.64 -3 21.28 -3 24 C-2.34 24 -1.68 24 -1 24 C-1.33 25.32 -1.66 26.64 -2 28 C-4.30883061 25.04469682 -5.00767398 23.41439467 -4.9375 19.625 C-3.81015968 12.98906491 -1.81323084 6.47702923 0 0 Z " fill="#5939D1" transform="translate(200,285)"/>
<path d="M0 0 C1.59960699 4.82073339 0.11734636 8.54458005 -2 13 C-4.76084207 16.05931148 -6.09829242 16.89391676 -10.1875 17.375 C-13 17 -13 17 -15 15 C-10.545 14.505 -10.545 14.505 -6 14 C-5.01 11.69 -4.02 9.38 -3 7 C-2.34 7 -1.68 7 -1 7 C-1.020625 6.030625 -1.04125 5.06125 -1.0625 4.0625 C-1 1 -1 1 0 0 Z " fill="#5A3BC9" transform="translate(214,298)"/>
<path d="M0 0 C0.66 0.33 1.32 0.66 2 1 C1.67 3.31 1.34 5.62 1 8 C2.32 8 3.64 8 5 8 C5 8.66 5 9.32 5 10 C6.45833358 11.62514468 6.45833358 11.62514468 8 13 C6.25 13.75 6.25 13.75 4 14 C0.45271214 11.70469609 -0.36452296 9.20346791 -1.25 5.25 C-1.51455862 3.83597978 -1.76940901 2.41995501 -2 1 C-1.34 0.67 -0.68 0.34 0 0 Z " fill="#6C4DD4" transform="translate(190,186)"/>
<path d="M0 0 C1.375 2.125 1.375 2.125 2 4 C1.34 3.649375 0.68 3.29875 0 2.9375 C-4.0513091 1.67146591 -6.83374555 2.29385518 -11 3 C-11.66 2.01 -12.32 1.02 -13 0 C-7.94230654 -1.82076965 -4.89003677 -2.50187928 0 0 Z " fill="#5B36DF" transform="translate(271,218)"/>
<path d="M0 0 C0.33 0 0.66 0 1 0 C0.97679687 0.74765625 0.95359375 1.4953125 0.9296875 2.265625 C0.91164062 3.25046875 0.89359375 4.2353125 0.875 5.25 C0.84019531 6.71179688 0.84019531 6.71179688 0.8046875 8.203125 C1.00354047 11.05069951 1.44561054 12.63037132 3 15 C3.66 15.33 4.32 15.66 5 16 C5 16.66 5 17.32 5 18 C0.35115167 16.53194263 0.35115167 16.53194263 -1.18359375 14.20703125 C-2.12756676 11.6551425 -2.06369489 10.11618894 -1.6875 7.4375 C-1.58824219 6.67308594 -1.48898438 5.90867187 -1.38671875 5.12109375 C-1 3 -1 3 0 0 Z " fill="#593ACE" transform="translate(236,282)"/>
<path d="M0 0 C0.33 0 0.66 0 1 0 C1.05454409 2.35448675 1.0939279 4.70767875 1.125 7.0625 C1.14820313 8.37347656 1.17140625 9.68445313 1.1953125 11.03515625 C0.99417522 15.11824299 0.27165462 18.14999053 -1 22 C-1.33 22 -1.66 22 -2 22 C-2.30071865 14.44862068 -1.42625566 7.41143564 0 0 Z " fill="#5F3FD3" transform="translate(307,218)"/>
<path d="M0 0 C2.5245795 -0.07213084 4.77760202 -0.04942177 7.25 0.5 C11.16747523 1.21226822 15.02942844 1.07785434 19 1 C15.31912647 3.45391569 12.55644412 3.22802759 8.3125 3.125 C7.2596582 3.11146484 7.2596582 3.11146484 6.18554688 3.09765625 C4.45688475 3.07413704 2.72839855 3.03826713 1 3 C0.67 2.01 0.34 1.02 0 0 Z " fill="#5935E3" transform="translate(261,264)"/>
<path d="M0 0 C4.48873309 3.52686171 6.58485642 8.58251782 8 14 C7.60546875 16.3125 7.60546875 16.3125 7 18 C4.69559987 13.70543612 3.21815438 9.68520915 2 5 C1.01 5 0.02 5 -1 5 C-0.67 3.35 -0.34 1.7 0 0 Z " fill="#603CCE" transform="translate(299,200)"/>
<path d="M0 0 C0.66 0 1.32 0 2 0 C1.74297526 4.3694206 1.39976667 6.51822991 -1.4375 9.9375 C-4 12 -4 12 -6 12 C-5.75 9.625 -5.75 9.625 -5 7 C-3.66666667 6.33333333 -2.33333333 5.66666667 -1 5 C-0.18828772 2.44480079 -0.18828772 2.44480079 0 0 Z " fill="#5535D5" transform="translate(251,288)"/>
<path d="M0 0 C0.66 0.33 1.32 0.66 2 1 C0.92130607 1.96355244 -0.16318743 2.92061417 -1.25 3.875 C-1.85328125 4.40867187 -2.4565625 4.94234375 -3.078125 5.4921875 C-5.01478471 7.01159939 -6.69793955 8.12521703 -9 9 C-9.99 8.67 -10.98 8.34 -12 8 C-11.34 8 -10.68 8 -10 8 C-9.67 7.01 -9.34 6.02 -9 5 C-7.68 5 -6.36 5 -5 5 C-5 4.34 -5 3.68 -5 3 C-4.34 3 -3.68 3 -3 3 C-2.67 2.34 -2.34 1.68 -2 1 C-1.34 0.67 -0.68 0.34 0 0 Z " fill="#5939CF" transform="translate(292,256)"/>
<path d="M0 0 C0.66 0 1.32 0 2 0 C1.91291331 1.45945288 1.80473093 2.91765868 1.6875 4.375 C1.62949219 5.18710937 1.57148438 5.99921875 1.51171875 6.8359375 C1 9 1 9 -2 11 C-1.125 3.375 -1.125 3.375 0 0 Z " fill="#5D3ECF" transform="translate(209,251)"/>
<path d="M0 0 C1.60080151 4.00200378 0.29279692 7.04556236 -1 11 C-1.33 11 -1.66 11 -2 11 C-2.25 3.375 -2.25 3.375 0 0 Z " fill="#5A36CC" transform="translate(255,276)"/>
<path d="M0 0 C0.99 0 1.98 0 3 0 C2.34 3.3 1.68 6.6 1 10 C0.67 10 0.34 10 0 10 C0 6.7 0 3.4 0 0 Z " fill="#5B38D5" transform="translate(221,266)"/>
<path d="M0 0 C2.125 0.375 2.125 0.375 4 1 C2.35 2.65 0.7 4.3 -1 6 C-1.625 4.125 -1.625 4.125 -2 2 C-1.34 1.34 -0.68 0.68 0 0 Z " fill="#4F30E1" transform="translate(295,251)"/>
<path d="M0 0 C0.66 0.66 1.32 1.32 2 2 C1.01 2.33 0.02 2.66 -1 3 C-0.34 4.65 0.32 6.3 1 8 C-0.32 7.01 -1.64 6.02 -3 5 C-2.625 3.0625 -2.625 3.0625 -2 1 C-1.34 0.67 -0.68 0.34 0 0 Z " fill="#5B34DC" transform="translate(284,202)"/>
<path d="M0 0 C1.98 0.495 1.98 0.495 4 1 C2.35 2.65 0.7 4.3 -1 6 C-0.67 4.02 -0.34 2.04 0 0 Z " fill="#6039E4" transform="translate(192,185)"/>
</svg>
